<?xml version="1.0" encoding="utf-8"?>
<!-- Generator: Adobe Illustrator 19.2.1, SVG Export Plug-In . SVG Version: 6.00 Build 0)  -->
<svg version="1.1" id="Layer_1" xmlns="http://www.w3.org/2000/svg" xmlns:xlink="http://www.w3.org/1999/xlink" x="0px" y="0px"
	 viewBox="0 0 150 150" style="enable-background:new 0 0 150 150;" xml:space="preserve">
<style type="text/css">
	.st0{fill:#FEFEFE;stroke:#FFFFFF;stroke-width:4;}
	.st1{fill:#051821;}
	.st2{fill:#ED174B;}
	.st3{fill:#006AB6;}
	.st4{fill:none;}
</style>
<title>LAC</title>
<desc>Created with Sketch.</desc>
<g id="Page-1_1_">
	<g id="LAC">
		<g id="Page-1">
			<path id="Fill-3" class="st0" d="M75,25.1c-27.5,0-49.9,22.4-49.9,49.9c0,27.5,22.4,50,49.9,50S125,102.5,125,75
				C125,47.5,102.6,25.1,75,25.1"/>
			<path id="Fill-5" class="st1" d="M111.1,102.8c-5.7-7.4-9-16.2-9.4-25.6h18.8C120.1,86.5,116.8,95.3,111.1,102.8 M77.2,120.5
				v-13.1h-4.4v13.1c-11.9-0.6-22.8-5.6-31-14.3c6.7-8.3,10.4-18.3,10.9-29v-4.4c-0.5-10.6-4.2-20.6-10.9-29
				c8.2-8.7,19.2-13.8,31-14.3v12.9h4.4V29.5c11.9,0.6,22.8,5.7,31,14.3c-6.7,8.3-10.4,18.3-10.9,29v4.4c0.5,10.6,4.2,20.6,10.9,29
				C100.1,114.9,89.1,120,77.2,120.5 M38.9,102.8c-5.7-7.4-9-16.2-9.4-25.6h18.8C47.9,86.5,44.7,95.3,38.9,102.8 M38.9,47.3
				c5.7,7.4,9,16.2,9.4,25.6H29.5C30,63.5,33.2,54.7,38.9,47.3 M111.1,47.3c5.7,7.4,9,16.2,9.4,25.6h-18.8
				C102.1,63.5,105.4,54.7,111.1,47.3 M75,25.1c-27.5,0-49.9,22.4-49.9,49.9s22.4,50,49.9,50c27.5,0,49.9-22.4,49.9-50
				S102.6,25.1,75,25.1"/>
			<polygon id="Fill-7" class="st2" points="63.9,54.1 63.9,95.8 86.2,95.8 86.2,90 69.9,90 69.9,54.1 			"/>
			<path id="Fill-9" class="st3" d="M93.7,68V50.9c0-2.6-1-3.6-3.6-3.6H59.9c-2.5,0-3.5,1-3.5,3.6v48.3c0,2.6,1,3.6,3.5,3.6h30.3
				c2.5,0,3.6-1,3.6-3.6V81.9h-6v15.5H62.3v-45h25.4V68H93.7z"/>
			<path id="Fill-11" class="st2" d="M77.4,72h2.9V59.8h-2.9V72z M86.1,88.4l0-34.3H71.7l-0.1,34.3h5.8l0.1-10.7h2.9l0,10.7H86.1z"
				/>
			<rect id="Rectangle" y="0" class="st4" width="150" height="150"/>
		</g>
	</g>
</g>
</svg>
